<?xml version="1.0" standalone="no"?>
<!DOCTYPE svg PUBLIC "-//W3C//DTD SVG 20010904//EN"
 "http://www.w3.org/TR/2001/REC-SVG-20010904/DTD/svg10.dtd">
<svg version="1.0" xmlns="http://www.w3.org/2000/svg"
 width="693.000000pt" height="180.000000pt" viewBox="0 0 693.000000 180.000000"
 preserveAspectRatio="xMidYMid meet">

<g transform="translate(0.000000,180.000000) scale(0.100000,-0.100000)"
fill="#000000" stroke="none">
<path d="M32 899 l3 -854 814 -2 814 -2 26 27 c29 30 50 57 141 177 130 173
155 205 165 206 6 0 1 4 -10 8 -11 5 -337 9 -725 10 -387 1 -706 4 -708 6 -8
7 -8 201 0 223 l8 22 527 0 528 1 58 77 c31 42 93 122 137 177 43 55 79 103
80 108 0 4 -299 7 -664 7 -519 0 -665 3 -672 13 -5 6 -9 55 -9 107 l0 95 895
6 c1752 12 1930 13 1937 6 3 -4 21 -5 39 -1 18 3 34 1 38 -5 4 -6 14 -11 22
-11 8 0 12 4 9 10 -8 13 58 0 67 -14 4 -5 4 -14 1 -19 -3 -5 4 -6 15 -3 24 8
78 -14 61 -25 -6 -4 -8 -12 -5 -18 10 -16 26 -14 26 4 0 8 5 15 10 15 6 0 10
-5 10 -11 0 -6 9 -9 20 -6 11 3 20 1 20 -5 0 -5 -9 -12 -20 -15 -20 -5 -19 -6
5 -31 l25 -25 25 23 c18 17 25 19 25 9 1 -11 3 -11 13 2 11 14 14 14 26 2 7
-8 10 -21 6 -31 -6 -15 -8 -15 -15 3 -10 23 -13 5 -4 -19 5 -13 9 -14 21 -5
12 11 13 8 8 -13 -4 -15 -2 -29 5 -33 8 -5 5 -12 -9 -22 -25 -17 -28 -43 -5
-43 13 0 14 -3 5 -14 -12 -14 -5 -46 10 -46 5 0 9 9 9 20 0 22 15 27 26 8 5
-7 3 -8 -7 -3 -11 7 -11 6 1 -9 12 -16 12 -19 -2 -27 -16 -9 -14 -49 3 -49 5
0 9 -7 9 -15 0 -8 5 -15 11 -15 5 0 7 -4 4 -10 -3 -5 2 -10 11 -10 16 0 15 -2
-3 -23 -20 -22 -36 -53 -38 -72 0 -5 -4 -16 -8 -22 -6 -10 24 -13 140 -13 81
0 185 -3 230 -6 l82 -7 11 29 c7 18 10 82 7 174 -6 160 -10 196 -24 193 -5 -1
-8 13 -5 30 3 25 1 29 -7 17 -9 -12 -11 -9 -11 13 0 33 -41 123 -69 154 -11
11 -17 24 -14 27 4 3 1 6 -5 6 -7 0 -12 6 -12 14 0 18 -123 133 -138 128 -7
-2 -11 2 -10 9 2 7 -7 18 -19 24 -13 7 -31 19 -41 28 -10 10 -24 17 -30 17 -7
0 -12 3 -12 8 0 4 -19 15 -43 26 -23 10 -50 23 -61 28 -31 16 -165 58 -186 58
-11 0 -28 4 -38 9 -35 20 -198 30 -483 30 -162 1 -921 4 -1687 7 l-1392 7 2
-854z m3358 492 c0 -5 -7 -11 -15 -15 -9 -3 -15 0 -15 9 0 8 7 15 15 15 8 0
15 -4 15 -9z m113 2 c-7 -2 -21 -2 -30 0 -10 3 -4 5 12 5 17 0 24 -2 18 -5z
m167 -51 c0 -10 -30 -32 -44 -32 -9 0 -16 -4 -16 -10 0 -5 -5 -10 -11 -10 -8
0 -8 4 0 14 6 7 9 20 6 27 -4 10 4 14 30 15 19 0 35 -1 35 -4z m15 -42 c3 -5
1 -10 -4 -10 -6 0 -11 5 -11 10 0 6 2 10 4 10 3 0 8 -4 11 -10z m45 -115 c-7
-8 -14 -15 -15 -15 -2 0 -5 7 -9 15 -4 10 1 15 16 15 17 0 18 -2 8 -15z m220
-215 c0 -5 -4 -10 -10 -10 -5 0 -10 5 -10 10 0 6 5 10 10 10 6 0 10 -4 10 -10z"/>
<path d="M5365 1725 c-95 -35 -160 -105 -355 -380 -41 -58 -102 -142 -136
-188 -33 -45 -79 -109 -102 -142 -24 -33 -61 -85 -83 -115 -22 -30 -48 -66
-57 -80 -9 -14 -22 -31 -29 -38 -7 -8 -18 -23 -25 -35 -6 -12 -23 -38 -38 -57
-15 -19 -55 -73 -89 -120 -34 -47 -66 -91 -72 -97 -8 -10 -191 -13 -853 -13
-760 0 -844 2 -850 16 -3 9 -6 150 -6 315 l0 299 -255 0 -255 0 0 -520 0 -520
1263 0 1263 0 62 92 c35 51 103 149 152 218 50 69 120 168 157 220 104 149
126 179 192 270 34 47 91 128 126 180 85 125 108 151 121 142 5 -4 48 -63 95
-132 193 -282 246 -359 296 -430 59 -83 86 -130 81 -136 -2 -2 -169 -4 -370
-4 l-366 -1 -146 -206 c-81 -113 -144 -209 -140 -212 9 -9 1944 -14 1944 -4 0
4 -22 38 -48 75 -26 37 -60 86 -77 110 -16 24 -73 104 -125 178 -52 74 -108
153 -123 175 -15 22 -52 74 -81 115 -29 41 -94 134 -144 205 -50 72 -123 175
-162 230 -39 55 -93 132 -120 170 -168 240 -200 284 -247 331 -80 80 -127 99
-253 101 -72 2 -118 -2 -145 -12z m-1837 -1282 c-54 -2 -142 -2 -195 0 -54 1
-10 3 97 3 107 0 151 -2 98 -3z"/>
<path d="M3518 1283 c7 -3 16 -2 19 1 4 3 -2 6 -13 5 -11 0 -14 -3 -6 -6z"/>
<path d="M3588 1253 c7 -3 16 -2 19 1 4 3 -2 6 -13 5 -11 0 -14 -3 -6 -6z"/>
<path d="M3750 1156 c0 -8 5 -18 10 -21 6 -3 10 3 10 14 0 12 -4 21 -10 21 -5
0 -10 -6 -10 -14z"/>
<path d="M3761 1104 c0 -11 3 -14 6 -6 3 7 2 16 -1 19 -3 4 -6 -2 -5 -13z"/>
<path d="M3790 1090 c0 -5 5 -10 11 -10 5 0 7 5 4 10 -3 6 -8 10 -11 10 -2 0
-4 -4 -4 -10z"/>
<path d="M3820 827 c0 -41 4 -66 10 -62 5 3 6 13 3 21 -3 9 -1 19 6 23 8 6 9
15 2 33 -7 19 -6 29 5 39 12 13 11 15 -6 15 -18 0 -20 -7 -20 -69z"/>
</g>
</svg>
